<svg width="250" height="250" viewBox="0 0 250 250" fill="none" xmlns="http://www.w3.org/2000/svg">
<path d="M41.6667 203.125V46.8752C41.6667 39.9685 44.4103 33.3447 49.2941 28.4609C54.1778 23.5772 60.8016 20.8335 67.7083 20.8335H197.917C200.679 20.8335 203.329 21.931 205.282 23.8845C207.236 25.838 208.333 28.4875 208.333 31.2502V218.75C208.333 221.513 207.236 224.162 205.282 226.116C203.329 228.069 200.679 229.167 197.917 229.167H67.7083C60.8016 229.167 54.1778 226.423 49.2941 221.539C44.4103 216.656 41.6667 210.032 41.6667 203.125ZM41.6667 203.125C41.6667 196.218 44.4103 189.595 49.2941 184.711C54.1778 179.827 60.8016 177.083 67.7083 177.083H208.333" stroke="#CEDAE6" stroke-width="12" stroke-linecap="round" stroke-linejoin="round"/>
</svg>
