<svg width="185" height="108" viewBox="0 0 185 108" fill="none" xmlns="http://www.w3.org/2000/svg">
<g filter="url(#filter0_d_169_98)">
<g filter="url(#filter1_d_169_98)">
<path d="M53.9999 81.854C48.3707 77.8915 41.8541 75.3665 35.0208 74.5165C30.1743 73.5319 25.2367 73.0668 20.2916 73.129C19.6588 73.1345 19.0313 73.0146 18.4451 72.7763C17.8589 72.538 17.3258 72.1859 16.8764 71.7404C16.427 71.2949 16.0703 70.7648 15.8269 70.1807C15.5835 69.5966 15.4582 68.9701 15.4583 68.3373L15.5458 22.9499C15.5431 21.732 16.0042 20.5589 16.8354 19.6689C17.6667 18.7788 18.8056 18.2387 20.0208 18.1582C25.0547 18.0581 30.0845 18.508 35.0208 19.4999C41.8467 20.3805 48.3583 22.8994 53.9999 26.8415M53.9999 81.854V26.8415M53.9999 81.854C59.6291 77.8915 66.1458 75.3665 72.9791 74.5165C77.8255 73.5319 82.7632 73.0668 87.7083 73.129C88.341 73.1345 88.9686 73.0146 89.5547 72.7763C90.1409 72.538 90.6741 72.1859 91.1234 71.7404C91.5728 71.2949 91.9295 70.7648 92.1729 70.1807C92.4163 69.5966 92.5416 68.9701 92.5416 68.3373L92.4499 22.9499C92.4527 21.7327 91.9921 20.5601 91.1617 19.6702C90.3314 18.7803 89.1935 18.2397 87.9791 18.1582C82.9452 18.0581 77.9153 18.508 72.9791 19.4999C66.1532 20.3805 59.6416 22.8994 53.9999 26.8415" stroke="white" stroke-linecap="round" stroke-linejoin="round" shape-rendering="crispEdges"/>
</g>
<path d="M63.707 55.6235V42.5326H66.0209V47.4289H66.1168C66.2361 47.1903 66.4044 46.9367 66.6217 46.6683C66.8391 46.3956 67.1331 46.1633 67.5038 45.9715C67.8746 45.7755 68.3476 45.6775 68.9229 45.6775C69.6814 45.6775 70.3653 45.8714 70.9747 46.2592C71.5884 46.6427 72.0742 47.2116 72.4321 47.9659C72.7943 48.7159 72.9754 49.6363 72.9754 50.7272C72.9754 51.8054 72.7986 52.7215 72.4449 53.4758C72.0912 54.2301 71.6097 54.8054 71.0003 55.2017C70.3909 55.598 69.7006 55.7961 68.9293 55.7961C68.3668 55.7961 67.9001 55.7024 67.5294 55.5149C67.1587 55.3274 66.8604 55.1015 66.6345 54.8373C66.4129 54.5688 66.2403 54.3153 66.1168 54.0767H65.9825V55.6235H63.707ZM65.9761 50.7144C65.9761 51.3494 66.0656 51.9055 66.2446 52.3828C66.4278 52.86 66.6899 53.2329 67.0308 53.5014C67.376 53.7656 67.7936 53.8977 68.2837 53.8977C68.795 53.8977 69.2233 53.7613 69.5685 53.4886C69.9136 53.2116 70.1736 52.8345 70.3483 52.3572C70.5273 51.8757 70.6168 51.3281 70.6168 50.7144C70.6168 50.1051 70.5294 49.5639 70.3547 49.0909C70.18 48.6179 69.92 48.2471 69.5749 47.9786C69.2297 47.7102 68.7993 47.5759 68.2837 47.5759C67.7894 47.5759 67.3696 47.7059 67.0244 47.9659C66.6793 48.2258 66.4172 48.5902 66.2382 49.0589C66.0635 49.5277 65.9761 50.0795 65.9761 50.7144ZM79.8453 45.8054V47.5951H74.2011V45.8054H79.8453ZM75.5946 43.4531H77.9085V52.6704C77.9085 52.9815 77.9554 53.2201 78.0491 53.3863C78.1471 53.5483 78.275 53.659 78.4326 53.7187C78.5903 53.7784 78.765 53.8082 78.9568 53.8082C79.1017 53.8082 79.2338 53.7975 79.3531 53.7762C79.4767 53.7549 79.5704 53.7358 79.6343 53.7187L80.0243 55.5277C79.9007 55.5703 79.7238 55.6171 79.4937 55.6683C79.2679 55.7194 78.9909 55.7492 78.6628 55.7578C78.0832 55.7748 77.5612 55.6875 77.0967 55.4957C76.6322 55.2997 76.2636 54.9971 75.9909 54.588C75.7224 54.1789 75.5903 53.6676 75.5946 53.0539V43.4531ZM84.3053 42.5326V55.6235H81.9914V42.5326H84.3053Z" fill="#C8BEA3"/>
<path d="M100.722 58V40.5455H103.884V55.3494H111.571V58H100.722ZM114.179 58V44.9091H117.264V58H114.179ZM115.73 43.0511C115.241 43.0511 114.821 42.8892 114.469 42.5653C114.116 42.2358 113.94 41.8409 113.94 41.3807C113.94 40.9148 114.116 40.5199 114.469 40.196C114.821 39.8665 115.241 39.7017 115.73 39.7017C116.224 39.7017 116.645 39.8665 116.991 40.196C117.344 40.5199 117.52 40.9148 117.52 41.3807C117.52 41.8409 117.344 42.2358 116.991 42.5653C116.645 42.8892 116.224 43.0511 115.73 43.0511ZM120.573 58V40.5455H123.658V47.0739H123.786C123.945 46.7557 124.17 46.4176 124.46 46.0597C124.749 45.696 125.141 45.3864 125.636 45.1307C126.13 44.8693 126.761 44.7386 127.528 44.7386C128.539 44.7386 129.451 44.9972 130.263 45.5142C131.082 46.0256 131.729 46.7841 132.207 47.7898C132.69 48.7898 132.931 50.017 132.931 51.4716C132.931 52.9091 132.695 54.1307 132.224 55.1364C131.752 56.142 131.11 56.9091 130.298 57.4375C129.485 57.9659 128.565 58.2301 127.536 58.2301C126.786 58.2301 126.164 58.1051 125.67 57.8551C125.175 57.6051 124.778 57.304 124.477 56.9517C124.181 56.5937 123.951 56.2557 123.786 55.9375H123.607V58H120.573ZM123.599 51.4545C123.599 52.3011 123.718 53.0426 123.957 53.679C124.201 54.3153 124.55 54.8125 125.005 55.1705C125.465 55.5227 126.022 55.6989 126.675 55.6989C127.357 55.6989 127.928 55.517 128.388 55.1534C128.849 54.7841 129.195 54.2812 129.428 53.6449C129.667 53.0028 129.786 52.2727 129.786 51.4545C129.786 50.642 129.67 49.9205 129.437 49.2898C129.204 48.6591 128.857 48.1648 128.397 47.8068C127.937 47.4489 127.363 47.2699 126.675 47.2699C126.016 47.2699 125.457 47.4432 124.996 47.7898C124.536 48.1364 124.187 48.6222 123.948 49.2472C123.715 49.8722 123.599 50.608 123.599 51.4545ZM135.554 58V44.9091H138.545V47.0909H138.682C138.92 46.3352 139.33 45.7528 139.909 45.3438C140.494 44.929 141.162 44.7216 141.912 44.7216C142.082 44.7216 142.273 44.7301 142.483 44.7472C142.699 44.7585 142.878 44.7784 143.02 44.8068V47.6449C142.889 47.5994 142.682 47.5597 142.398 47.5256C142.119 47.4858 141.849 47.4659 141.588 47.4659C141.026 47.4659 140.52 47.5881 140.071 47.8324C139.628 48.071 139.278 48.4034 139.023 48.8295C138.767 49.2557 138.639 49.7472 138.639 50.304V58H135.554ZM148.602 58.2642C147.773 58.2642 147.026 58.1165 146.361 57.821C145.702 57.5199 145.179 57.0767 144.793 56.4915C144.412 55.9062 144.222 55.1847 144.222 54.3267C144.222 53.5881 144.358 52.9773 144.631 52.4943C144.903 52.0114 145.276 51.625 145.747 51.3352C146.219 51.0455 146.75 50.8267 147.341 50.679C147.938 50.5256 148.554 50.4148 149.19 50.3466C149.957 50.267 150.58 50.196 151.057 50.1335C151.534 50.0653 151.881 49.9631 152.097 49.8267C152.318 49.6847 152.429 49.4659 152.429 49.1705V49.1193C152.429 48.4773 152.239 47.9801 151.858 47.6278C151.477 47.2756 150.929 47.0994 150.213 47.0994C149.457 47.0994 148.858 47.2642 148.415 47.5938C147.977 47.9233 147.682 48.3125 147.528 48.7614L144.648 48.3523C144.875 47.5568 145.25 46.892 145.773 46.358C146.295 45.8182 146.935 45.4148 147.69 45.1477C148.446 44.875 149.281 44.7386 150.196 44.7386C150.827 44.7386 151.455 44.8125 152.08 44.9602C152.705 45.108 153.276 45.3523 153.793 45.6932C154.31 46.0284 154.724 46.4858 155.037 47.0653C155.355 47.6449 155.514 48.3693 155.514 49.2386V58H152.548V56.2017H152.446C152.259 56.5653 151.994 56.9062 151.653 57.2244C151.318 57.5369 150.895 57.7898 150.384 57.983C149.878 58.1705 149.284 58.2642 148.602 58.2642ZM149.403 55.9972C150.023 55.9972 150.56 55.875 151.014 55.6307C151.469 55.3807 151.818 55.0511 152.062 54.642C152.312 54.233 152.438 53.7869 152.438 53.304V51.7614C152.341 51.8409 152.176 51.9148 151.943 51.983C151.716 52.0511 151.46 52.1108 151.176 52.1619C150.892 52.2131 150.611 52.2585 150.332 52.2983C150.054 52.3381 149.813 52.3722 149.608 52.4006C149.148 52.4631 148.736 52.5653 148.372 52.7074C148.009 52.8494 147.722 53.0483 147.511 53.304C147.301 53.554 147.196 53.8778 147.196 54.2756C147.196 54.8438 147.403 55.2727 147.818 55.5625C148.233 55.8523 148.761 55.9972 149.403 55.9972ZM158.616 58V44.9091H161.608V47.0909H161.744C161.983 46.3352 162.392 45.7528 162.972 45.3438C163.557 44.929 164.224 44.7216 164.974 44.7216C165.145 44.7216 165.335 44.7301 165.545 44.7472C165.761 44.7585 165.94 44.7784 166.082 44.8068V47.6449C165.952 47.5994 165.744 47.5597 165.46 47.5256C165.182 47.4858 164.912 47.4659 164.651 47.4659C164.088 47.4659 163.582 47.5881 163.134 47.8324C162.69 48.071 162.341 48.4034 162.085 48.8295C161.83 49.2557 161.702 49.7472 161.702 50.304V58H158.616ZM170.448 62.9091C170.028 62.9091 169.638 62.875 169.281 62.8068C168.928 62.7443 168.647 62.6705 168.437 62.5852L169.153 60.1818C169.602 60.3125 170.002 60.375 170.354 60.3693C170.707 60.3636 171.016 60.2528 171.283 60.0369C171.556 59.8267 171.786 59.4744 171.974 58.9801L172.238 58.2727L167.491 44.9091H170.763L173.781 54.7955H173.917L176.942 44.9091H180.224L174.982 59.5852C174.738 60.2784 174.414 60.8722 174.011 61.3665C173.607 61.8665 173.113 62.2472 172.528 62.5085C171.948 62.7756 171.255 62.9091 170.448 62.9091Z" fill="#C8BEA3"/>
</g>
<defs>
<filter id="filter0_d_169_98" x="0" y="0" width="185" height="108" filterUnits="userSpaceOnUse" color-interpolation-filters="sRGB">
<feFlood flood-opacity="0" result="BackgroundImageFix"/>
<feColorMatrix in="SourceAlpha" type="matrix" values="0 0 0 0 0 0 0 0 0 0 0 0 0 0 0 0 0 0 127 0" result="hardAlpha"/>
<feOffset dy="4"/>
<feGaussianBlur stdDeviation="2"/>
<feComposite in2="hardAlpha" operator="out"/>
<feColorMatrix type="matrix" values="0 0 0 0 0 0 0 0 0 0 0 0 0 0 0 0 0 0 0.25 0"/>
<feBlend mode="normal" in2="BackgroundImageFix" result="effect1_dropShadow_169_98"/>
<feBlend mode="normal" in="SourceGraphic" in2="effect1_dropShadow_169_98" result="shape"/>
</filter>
<filter id="filter1_d_169_98" x="8.95825" y="17.6445" width="94.0833" height="80.7095" filterUnits="userSpaceOnUse" color-interpolation-filters="sRGB">
<feFlood flood-opacity="0" result="BackgroundImageFix"/>
<feColorMatrix in="SourceAlpha" type="matrix" values="0 0 0 0 0 0 0 0 0 0 0 0 0 0 0 0 0 0 127 0" result="hardAlpha"/>
<feOffset dx="2" dy="8"/>
<feGaussianBlur stdDeviation="4"/>
<feComposite in2="hardAlpha" operator="out"/>
<feColorMatrix type="matrix" values="0 0 0 0 0 0 0 0 0 0 0 0 0 0 0 0 0 0 0.25 0"/>
<feBlend mode="normal" in2="BackgroundImageFix" result="effect1_dropShadow_169_98"/>
<feBlend mode="normal" in="SourceGraphic" in2="effect1_dropShadow_169_98" result="shape"/>
</filter>
</defs>
</svg>
